<svg id="visual" viewBox="0 0 1500 500" width="1500" height="500" xmlns="http://www.w3.org/2000/svg" xmlns:xlink="http://www.w3.org/1999/xlink" version="1.1"><path d="M0 377L31.3 378.7C62.7 380.3 125.3 383.7 187.8 377.5C250.3 371.3 312.7 355.7 375.2 356C437.7 356.3 500.3 372.7 562.8 379.2C625.3 385.7 687.7 382.3 750.2 380.2C812.7 378 875.3 377 937.8 372.2C1000.3 367.3 1062.7 358.7 1125.2 359.7C1187.7 360.7 1250.3 371.3 1312.8 377.5C1375.3 383.7 1437.7 385.3 1468.8 386.2L1500 387L1500 501L1468.8 501C1437.7 501 1375.3 501 1312.8 501C1250.3 501 1187.7 501 1125.2 501C1062.7 501 1000.3 501 937.8 501C875.3 501 812.7 501 750.2 501C687.7 501 625.3 501 562.8 501C500.3 501 437.7 501 375.2 501C312.7 501 250.3 501 187.8 501C125.3 501 62.7 501 31.3 501L0 501Z" fill="#015d64"></path><path d="M0 376L31.3 376.8C62.7 377.7 125.3 379.3 187.8 385.5C250.3 391.7 312.7 402.3 375.2 401.7C437.7 401 500.3 389 562.8 386.7C625.3 384.3 687.7 391.7 750.2 397.7C812.7 403.7 875.3 408.3 937.8 407C1000.3 405.7 1062.7 398.3 1125.2 394.3C1187.7 390.3 1250.3 389.7 1312.8 391.7C1375.3 393.7 1437.7 398.3 1468.8 400.7L1500 403L1500 501L1468.8 501C1437.7 501 1375.3 501 1312.8 501C1250.3 501 1187.7 501 1125.2 501C1062.7 501 1000.3 501 937.8 501C875.3 501 812.7 501 750.2 501C687.7 501 625.3 501 562.8 501C500.3 501 437.7 501 375.2 501C312.7 501 250.3 501 187.8 501C125.3 501 62.7 501 31.3 501L0 501Z" fill="#005f73"></path><path d="M0 404L31.3 402.8C62.7 401.7 125.3 399.3 187.8 402.7C250.3 406 312.7 415 375.2 418.7C437.7 422.3 500.3 420.7 562.8 421.2C625.3 421.7 687.7 424.3 750.2 420.8C812.7 417.3 875.3 407.7 937.8 403.5C1000.3 399.3 1062.7 400.7 1125.2 405.3C1187.7 410 1250.3 418 1312.8 419.8C1375.3 421.7 1437.7 417.3 1468.8 415.2L1500 413L1500 501L1468.8 501C1437.7 501 1375.3 501 1312.8 501C1250.3 501 1187.7 501 1125.2 501C1062.7 501 1000.3 501 937.8 501C875.3 501 812.7 501 750.2 501C687.7 501 625.3 501 562.8 501C500.3 501 437.7 501 375.2 501C312.7 501 250.3 501 187.8 501C125.3 501 62.7 501 31.3 501L0 501Z" fill="#006080"></path><path d="M0 432L31.3 434.3C62.7 436.7 125.3 441.3 187.8 442.7C250.3 444 312.7 442 375.2 443.7C437.7 445.3 500.3 450.7 562.8 452.3C625.3 454 687.7 452 750.2 447.8C812.7 443.7 875.3 437.3 937.8 438.5C1000.3 439.7 1062.7 448.3 1125.2 449.2C1187.7 450 1250.3 443 1312.8 441.3C1375.3 439.7 1437.7 443.3 1468.8 445.2L1500 447L1500 501L1468.8 501C1437.7 501 1375.3 501 1312.8 501C1250.3 501 1187.7 501 1125.2 501C1062.7 501 1000.3 501 937.8 501C875.3 501 812.7 501 750.2 501C687.7 501 625.3 501 562.8 501C500.3 501 437.7 501 375.2 501C312.7 501 250.3 501 187.8 501C125.3 501 62.7 501 31.3 501L0 501Z" fill="#00608d"></path><path d="M0 479L31.3 477.3C62.7 475.7 125.3 472.3 187.8 468.7C250.3 465 312.7 461 375.2 460.2C437.7 459.3 500.3 461.7 562.8 465.2C625.3 468.7 687.7 473.3 750.2 473.7C812.7 474 875.3 470 937.8 467.5C1000.3 465 1062.7 464 1125.2 464.3C1187.7 464.7 1250.3 466.3 1312.8 466.8C1375.3 467.3 1437.7 466.7 1468.8 466.3L1500 466L1500 501L1468.8 501C1437.7 501 1375.3 501 1312.8 501C1250.3 501 1187.7 501 1125.2 501C1062.7 501 1000.3 501 937.8 501C875.3 501 812.7 501 750.2 501C687.7 501 625.3 501 562.8 501C500.3 501 437.7 501 375.2 501C312.7 501 250.3 501 187.8 501C125.3 501 62.7 501 31.3 501L0 501Z" fill="#015e98"></path></svg>